<mxfile host="65bd71144e" modified="2020-10-14T17:31:34.181Z" agent="5.0 (Windows NT 10.0; Win64; x64) AppleWebKit/537.36 (KHTML, like Gecko) Code/1.50.0 Chrome/83.0.4103.122 Electron/9.2.1 Safari/537.36" etag="DDIXw6Oe1dSXYgUVHh12" version="13.6.5">
    <diagram id="PbnBU2pwnW53D94iivB2" name="Page-1">
        <mxGraphModel dx="1083" dy="618" grid="0" gridSize="10" guides="1" tooltips="1" connect="1" arrows="1" fold="1" page="1" pageScale="1" pageWidth="827" pageHeight="1169" background="none" math="0" shadow="0">
            <root>
                <mxCell id="0"/>
                <mxCell id="1" parent="0"/>
                <mxCell id="170" style="edgeStyle=orthogonalEdgeStyle;rounded=0;orthogonalLoop=1;jettySize=auto;html=1;entryX=0.5;entryY=0;entryDx=0;entryDy=0;" edge="1" parent="1" target="148">
                    <mxGeometry relative="1" as="geometry">
                        <mxPoint x="824" y="638" as="sourcePoint"/>
                    </mxGeometry>
                </mxCell>
                <mxCell id="26" value="Pagamentos" style="swimlane;html=1;startSize=20;horizontal=1;containerType=tree;newEdgeStyle={&quot;edgeStyle&quot;:&quot;elbowEdgeStyle&quot;,&quot;startArrow&quot;:&quot;none&quot;,&quot;endArrow&quot;:&quot;none&quot;};fillColor=#6a00ff;strokeColor=#3700CC;fontColor=#ffffff;" parent="1" vertex="1">
                    <mxGeometry x="181" y="388" width="1388" height="250" as="geometry"/>
                </mxCell>
                <UserObject label="Pagamentos" treeRoot="1" id="28">
                    <mxCell style="whiteSpace=wrap;html=1;align=center;treeFolding=1;treeMoving=1;newEdgeStyle={&quot;edgeStyle&quot;:&quot;elbowEdgeStyle&quot;,&quot;startArrow&quot;:&quot;none&quot;,&quot;endArrow&quot;:&quot;none&quot;};fillColor=#6a00ff;strokeColor=#3700CC;fontColor=#ffffff;" parent="26" vertex="1">
                        <mxGeometry x="30" y="40" width="120" height="60" as="geometry"/>
                    </mxCell>
                </UserObject>
                <mxCell id="39" value="" style="edgeStyle=elbowEdgeStyle;orthogonalLoop=1;jettySize=auto;html=1;elbow=vertical;startArrow=none;endArrow=none;" parent="26" source="28" target="40" edge="1">
                    <mxGeometry relative="1" as="geometry"/>
                </mxCell>
                <UserObject label="Postback" treeRoot="1" id="40">
                    <mxCell style="whiteSpace=wrap;html=1;align=center;treeFolding=1;treeMoving=1;newEdgeStyle={&quot;edgeStyle&quot;:&quot;elbowEdgeStyle&quot;,&quot;startArrow&quot;:&quot;none&quot;,&quot;endArrow&quot;:&quot;none&quot;};" parent="26" vertex="1">
                        <mxGeometry x="30" y="140" width="120" height="60" as="geometry"/>
                    </mxCell>
                </UserObject>
                <mxCell id="45" value="" style="edgeStyle=elbowEdgeStyle;orthogonalLoop=1;jettySize=auto;html=1;elbow=vertical;startArrow=none;endArrow=none;" parent="26" source="28" target="46" edge="1">
                    <mxGeometry relative="1" as="geometry">
                        <mxPoint x="99.99999999999989" y="120" as="sourcePoint"/>
                    </mxGeometry>
                </mxCell>
                <UserObject label="Relatórios / Dashboards" treeRoot="1" id="46">
                    <mxCell style="whiteSpace=wrap;html=1;align=center;treeFolding=1;treeMoving=1;newEdgeStyle={&quot;edgeStyle&quot;:&quot;elbowEdgeStyle&quot;,&quot;startArrow&quot;:&quot;none&quot;,&quot;endArrow&quot;:&quot;none&quot;};" parent="26" vertex="1">
                        <mxGeometry x="160" y="140" width="140" height="60" as="geometry"/>
                    </mxCell>
                </UserObject>
                <mxCell id="47" value="" style="edgeStyle=elbowEdgeStyle;orthogonalLoop=1;jettySize=auto;html=1;elbow=vertical;startArrow=none;endArrow=none;" parent="26" source="28" target="48" edge="1">
                    <mxGeometry relative="1" as="geometry">
                        <mxPoint x="99.99999999999989" y="120" as="sourcePoint"/>
                    </mxGeometry>
                </mxCell>
                <UserObject label="Vendas Admin / Upsell" treeRoot="1" id="48">
                    <mxCell style="whiteSpace=wrap;html=1;align=center;treeFolding=1;treeMoving=1;newEdgeStyle={&quot;edgeStyle&quot;:&quot;elbowEdgeStyle&quot;,&quot;startArrow&quot;:&quot;none&quot;,&quot;endArrow&quot;:&quot;none&quot;};" parent="26" vertex="1">
                        <mxGeometry x="310" y="140" width="120" height="60" as="geometry"/>
                    </mxCell>
                </UserObject>
                <mxCell id="70" value="" style="edgeStyle=elbowEdgeStyle;orthogonalLoop=1;jettySize=auto;html=1;elbow=vertical;startArrow=none;endArrow=none;" parent="26" source="28" target="71" edge="1">
                    <mxGeometry relative="1" as="geometry">
                        <mxPoint x="109.99999999999977" y="120" as="sourcePoint"/>
                    </mxGeometry>
                </mxCell>
                <UserObject label="Rastreio" treeRoot="1" id="71">
                    <mxCell style="whiteSpace=wrap;html=1;align=center;treeFolding=1;treeMoving=1;newEdgeStyle={&quot;edgeStyle&quot;:&quot;elbowEdgeStyle&quot;,&quot;startArrow&quot;:&quot;none&quot;,&quot;endArrow&quot;:&quot;none&quot;};" parent="26" vertex="1">
                        <mxGeometry x="440" y="140" width="120" height="60" as="geometry"/>
                    </mxCell>
                </UserObject>
                <mxCell id="72" value="" style="edgeStyle=elbowEdgeStyle;orthogonalLoop=1;jettySize=auto;html=1;elbow=vertical;startArrow=none;endArrow=none;" parent="26" source="28" target="73" edge="1">
                    <mxGeometry relative="1" as="geometry">
                        <mxPoint x="119.99999999999977" y="120" as="sourcePoint"/>
                    </mxGeometry>
                </mxCell>
                <UserObject label="Integração ERP" treeRoot="1" id="73">
                    <mxCell style="whiteSpace=wrap;html=1;align=center;treeFolding=1;treeMoving=1;newEdgeStyle={&quot;edgeStyle&quot;:&quot;elbowEdgeStyle&quot;,&quot;startArrow&quot;:&quot;none&quot;,&quot;endArrow&quot;:&quot;none&quot;};" parent="26" vertex="1">
                        <mxGeometry x="570" y="140" width="120" height="60" as="geometry"/>
                    </mxCell>
                </UserObject>
                <mxCell id="76" value="" style="edgeStyle=elbowEdgeStyle;orthogonalLoop=1;jettySize=auto;html=1;elbow=vertical;startArrow=none;endArrow=none;" parent="26" source="28" target="77" edge="1">
                    <mxGeometry relative="1" as="geometry">
                        <mxPoint x="119.99999999999977" y="120" as="sourcePoint"/>
                    </mxGeometry>
                </mxCell>
                <UserObject label="Histórico de Status" treeRoot="1" id="77">
                    <mxCell style="whiteSpace=wrap;html=1;align=center;treeFolding=1;treeMoving=1;newEdgeStyle={&quot;edgeStyle&quot;:&quot;elbowEdgeStyle&quot;,&quot;startArrow&quot;:&quot;none&quot;,&quot;endArrow&quot;:&quot;none&quot;};" parent="26" vertex="1">
                        <mxGeometry x="700" y="140" width="120" height="60" as="geometry"/>
                    </mxCell>
                </UserObject>
                <mxCell id="85" value="" style="edgeStyle=elbowEdgeStyle;orthogonalLoop=1;jettySize=auto;html=1;elbow=vertical;startArrow=none;endArrow=none;" parent="26" source="28" target="86" edge="1">
                    <mxGeometry relative="1" as="geometry">
                        <mxPoint x="100" y="120" as="sourcePoint"/>
                    </mxGeometry>
                </mxCell>
                <UserObject label="Webhook" treeRoot="1" id="86">
                    <mxCell style="whiteSpace=wrap;html=1;align=center;treeFolding=1;treeMoving=1;newEdgeStyle={&quot;edgeStyle&quot;:&quot;elbowEdgeStyle&quot;,&quot;startArrow&quot;:&quot;none&quot;,&quot;endArrow&quot;:&quot;none&quot;};" parent="26" vertex="1">
                        <mxGeometry x="830" y="140" width="120" height="60" as="geometry"/>
                    </mxCell>
                </UserObject>
                <mxCell id="87" value="" style="edgeStyle=elbowEdgeStyle;orthogonalLoop=1;jettySize=auto;html=1;elbow=vertical;startArrow=none;endArrow=none;" parent="26" source="28" target="88" edge="1">
                    <mxGeometry relative="1" as="geometry">
                        <mxPoint x="99.99999999999977" y="120" as="sourcePoint"/>
                    </mxGeometry>
                </mxCell>
                <UserObject label="Carrinho" treeRoot="1" id="88">
                    <mxCell style="whiteSpace=wrap;html=1;align=center;treeFolding=1;treeMoving=1;newEdgeStyle={&quot;edgeStyle&quot;:&quot;elbowEdgeStyle&quot;,&quot;startArrow&quot;:&quot;none&quot;,&quot;endArrow&quot;:&quot;none&quot;};" parent="26" vertex="1">
                        <mxGeometry x="960" y="140" width="120" height="60" as="geometry"/>
                    </mxCell>
                </UserObject>
                <mxCell id="89" value="" style="edgeStyle=elbowEdgeStyle;orthogonalLoop=1;jettySize=auto;html=1;elbow=vertical;startArrow=none;endArrow=none;" parent="26" source="28" target="90" edge="1">
                    <mxGeometry relative="1" as="geometry">
                        <mxPoint x="99.99999999999977" y="120" as="sourcePoint"/>
                    </mxGeometry>
                </mxCell>
                <UserObject label="Emails" treeRoot="1" id="90">
                    <mxCell style="whiteSpace=wrap;html=1;align=center;treeFolding=1;treeMoving=1;newEdgeStyle={&quot;edgeStyle&quot;:&quot;elbowEdgeStyle&quot;,&quot;startArrow&quot;:&quot;none&quot;,&quot;endArrow&quot;:&quot;none&quot;};" parent="26" vertex="1">
                        <mxGeometry x="1090" y="140" width="120" height="60" as="geometry"/>
                    </mxCell>
                </UserObject>
                <mxCell id="91" value="" style="edgeStyle=elbowEdgeStyle;orthogonalLoop=1;jettySize=auto;html=1;elbow=vertical;startArrow=none;endArrow=none;" parent="26" source="28" target="92" edge="1">
                    <mxGeometry relative="1" as="geometry">
                        <mxPoint x="99.99999999999977" y="120" as="sourcePoint"/>
                    </mxGeometry>
                </mxCell>
                <UserObject label="Marketing" treeRoot="1" id="92">
                    <mxCell style="whiteSpace=wrap;html=1;align=center;treeFolding=1;treeMoving=1;newEdgeStyle={&quot;edgeStyle&quot;:&quot;elbowEdgeStyle&quot;,&quot;startArrow&quot;:&quot;none&quot;,&quot;endArrow&quot;:&quot;none&quot;};" parent="26" vertex="1">
                        <mxGeometry x="1220" y="140" width="120" height="60" as="geometry"/>
                    </mxCell>
                </UserObject>
                <mxCell id="121" style="edgeStyle=orthogonalEdgeStyle;rounded=1;sketch=0;orthogonalLoop=1;jettySize=auto;html=1;exitX=0.5;exitY=1;exitDx=0;exitDy=0;" parent="1" source="93" edge="1">
                    <mxGeometry relative="1" as="geometry">
                        <mxPoint x="799" y="384" as="targetPoint"/>
                    </mxGeometry>
                </mxCell>
                <mxCell id="147" style="edgeStyle=orthogonalEdgeStyle;rounded=1;sketch=0;orthogonalLoop=1;jettySize=auto;html=1;entryX=0;entryY=0.5;entryDx=0;entryDy=0;" parent="1" source="93" target="132" edge="1">
                    <mxGeometry relative="1" as="geometry"/>
                </mxCell>
                <mxCell id="93" value="Produtos" style="swimlane;html=1;startSize=20;horizontal=1;containerType=tree;newEdgeStyle={&quot;edgeStyle&quot;:&quot;elbowEdgeStyle&quot;,&quot;startArrow&quot;:&quot;none&quot;,&quot;endArrow&quot;:&quot;none&quot;};fillColor=#d80073;strokeColor=#A50040;fontColor=#ffffff;" parent="1" vertex="1">
                    <mxGeometry x="138" y="21" width="570" height="250" as="geometry"/>
                </mxCell>
                <UserObject label="Produtos" treeRoot="1" id="95">
                    <mxCell style="whiteSpace=wrap;html=1;align=center;treeFolding=1;treeMoving=1;newEdgeStyle={&quot;edgeStyle&quot;:&quot;elbowEdgeStyle&quot;,&quot;startArrow&quot;:&quot;none&quot;,&quot;endArrow&quot;:&quot;none&quot;};fillColor=#d80073;strokeColor=#A50040;fontColor=#ffffff;" parent="93" vertex="1">
                        <mxGeometry x="30" y="40" width="120" height="60" as="geometry"/>
                    </mxCell>
                </UserObject>
                <mxCell id="97" value="" style="edgeStyle=elbowEdgeStyle;orthogonalLoop=1;jettySize=auto;html=1;elbow=vertical;startArrow=none;endArrow=none;" parent="93" source="95" target="98" edge="1">
                    <mxGeometry relative="1" as="geometry"/>
                </mxCell>
                <UserObject label="Checkout / Upsell" treeRoot="1" id="98">
                    <mxCell style="whiteSpace=wrap;html=1;align=center;treeFolding=1;treeMoving=1;newEdgeStyle={&quot;edgeStyle&quot;:&quot;elbowEdgeStyle&quot;,&quot;startArrow&quot;:&quot;none&quot;,&quot;endArrow&quot;:&quot;none&quot;};" parent="93" vertex="1">
                        <mxGeometry x="30" y="150" width="120" height="60" as="geometry"/>
                    </mxCell>
                </UserObject>
                <mxCell id="122" value="" style="edgeStyle=elbowEdgeStyle;orthogonalLoop=1;jettySize=auto;html=1;elbow=vertical;startArrow=none;endArrow=none;" parent="93" source="95" target="123" edge="1">
                    <mxGeometry relative="1" as="geometry">
                        <mxPoint x="130.00000000000023" y="130" as="sourcePoint"/>
                    </mxGeometry>
                </mxCell>
                <UserObject label="Postback" treeRoot="1" id="123">
                    <mxCell style="whiteSpace=wrap;html=1;align=center;treeFolding=1;treeMoving=1;newEdgeStyle={&quot;edgeStyle&quot;:&quot;elbowEdgeStyle&quot;,&quot;startArrow&quot;:&quot;none&quot;,&quot;endArrow&quot;:&quot;none&quot;};" parent="93" vertex="1">
                        <mxGeometry x="160" y="150" width="120" height="60" as="geometry"/>
                    </mxCell>
                </UserObject>
                <mxCell id="124" value="" style="edgeStyle=elbowEdgeStyle;orthogonalLoop=1;jettySize=auto;html=1;elbow=vertical;startArrow=none;endArrow=none;" parent="93" source="95" target="125" edge="1">
                    <mxGeometry relative="1" as="geometry">
                        <mxPoint x="130.00000000000023" y="130" as="sourcePoint"/>
                    </mxGeometry>
                </mxCell>
                <UserObject label="Marketing" treeRoot="1" id="125">
                    <mxCell style="whiteSpace=wrap;html=1;align=center;treeFolding=1;treeMoving=1;newEdgeStyle={&quot;edgeStyle&quot;:&quot;elbowEdgeStyle&quot;,&quot;startArrow&quot;:&quot;none&quot;,&quot;endArrow&quot;:&quot;none&quot;};" parent="93" vertex="1">
                        <mxGeometry x="290" y="150" width="120" height="60" as="geometry"/>
                    </mxCell>
                </UserObject>
                <mxCell id="126" value="" style="edgeStyle=elbowEdgeStyle;orthogonalLoop=1;jettySize=auto;html=1;elbow=vertical;startArrow=none;endArrow=none;" parent="93" source="95" target="127" edge="1">
                    <mxGeometry relative="1" as="geometry">
                        <mxPoint x="130" y="130" as="sourcePoint"/>
                    </mxGeometry>
                </mxCell>
                <UserObject label="Carrinhos" treeRoot="1" id="127">
                    <mxCell style="whiteSpace=wrap;html=1;align=center;treeFolding=1;treeMoving=1;newEdgeStyle={&quot;edgeStyle&quot;:&quot;elbowEdgeStyle&quot;,&quot;startArrow&quot;:&quot;none&quot;,&quot;endArrow&quot;:&quot;none&quot;};" parent="93" vertex="1">
                        <mxGeometry x="420" y="150" width="120" height="60" as="geometry"/>
                    </mxCell>
                </UserObject>
                <mxCell id="142" style="edgeStyle=orthogonalEdgeStyle;rounded=1;sketch=0;orthogonalLoop=1;jettySize=auto;html=1;" parent="1" source="132" edge="1">
                    <mxGeometry relative="1" as="geometry">
                        <mxPoint x="885" y="390" as="targetPoint"/>
                    </mxGeometry>
                </mxCell>
                <mxCell id="132" value="Checkouts" style="swimlane;html=1;startSize=20;horizontal=1;containerType=tree;newEdgeStyle={&quot;edgeStyle&quot;:&quot;elbowEdgeStyle&quot;,&quot;startArrow&quot;:&quot;none&quot;,&quot;endArrow&quot;:&quot;none&quot;};fillColor=#008a00;strokeColor=#005700;fontColor=#ffffff;" parent="1" vertex="1">
                    <mxGeometry x="779" y="21" width="830" height="250" as="geometry"/>
                </mxCell>
                <UserObject label="Checkouts" treeRoot="1" id="133">
                    <mxCell style="whiteSpace=wrap;html=1;align=center;treeFolding=1;treeMoving=1;newEdgeStyle={&quot;edgeStyle&quot;:&quot;elbowEdgeStyle&quot;,&quot;startArrow&quot;:&quot;none&quot;,&quot;endArrow&quot;:&quot;none&quot;};fillColor=#008a00;strokeColor=#005700;fontColor=#ffffff;" parent="132" vertex="1">
                        <mxGeometry x="30" y="40" width="120" height="60" as="geometry"/>
                    </mxCell>
                </UserObject>
                <mxCell id="134" value="" style="edgeStyle=elbowEdgeStyle;orthogonalLoop=1;jettySize=auto;html=1;elbow=vertical;startArrow=none;endArrow=none;" parent="132" source="133" target="135" edge="1">
                    <mxGeometry relative="1" as="geometry"/>
                </mxCell>
                <UserObject label="Upsell" treeRoot="1" id="135">
                    <mxCell style="whiteSpace=wrap;html=1;align=center;treeFolding=1;treeMoving=1;newEdgeStyle={&quot;edgeStyle&quot;:&quot;elbowEdgeStyle&quot;,&quot;startArrow&quot;:&quot;none&quot;,&quot;endArrow&quot;:&quot;none&quot;};" parent="132" vertex="1">
                        <mxGeometry x="30" y="150" width="120" height="60" as="geometry"/>
                    </mxCell>
                </UserObject>
                <mxCell id="136" value="" style="edgeStyle=elbowEdgeStyle;orthogonalLoop=1;jettySize=auto;html=1;elbow=vertical;startArrow=none;endArrow=none;" parent="132" source="133" target="137" edge="1">
                    <mxGeometry relative="1" as="geometry">
                        <mxPoint x="130.00000000000023" y="130" as="sourcePoint"/>
                    </mxGeometry>
                </mxCell>
                <UserObject label="Pagamentos" treeRoot="1" id="137">
                    <mxCell style="whiteSpace=wrap;html=1;align=center;treeFolding=1;treeMoving=1;newEdgeStyle={&quot;edgeStyle&quot;:&quot;elbowEdgeStyle&quot;,&quot;startArrow&quot;:&quot;none&quot;,&quot;endArrow&quot;:&quot;none&quot;};" parent="132" vertex="1">
                        <mxGeometry x="160" y="150" width="120" height="60" as="geometry"/>
                    </mxCell>
                </UserObject>
                <mxCell id="138" value="" style="edgeStyle=elbowEdgeStyle;orthogonalLoop=1;jettySize=auto;html=1;elbow=vertical;startArrow=none;endArrow=none;" parent="132" source="133" target="139" edge="1">
                    <mxGeometry relative="1" as="geometry">
                        <mxPoint x="130.00000000000023" y="130" as="sourcePoint"/>
                    </mxGeometry>
                </mxCell>
                <UserObject label="Carrinhos" treeRoot="1" id="139">
                    <mxCell style="whiteSpace=wrap;html=1;align=center;treeFolding=1;treeMoving=1;newEdgeStyle={&quot;edgeStyle&quot;:&quot;elbowEdgeStyle&quot;,&quot;startArrow&quot;:&quot;none&quot;,&quot;endArrow&quot;:&quot;none&quot;};" parent="132" vertex="1">
                        <mxGeometry x="290" y="150" width="120" height="60" as="geometry"/>
                    </mxCell>
                </UserObject>
                <mxCell id="140" value="" style="edgeStyle=elbowEdgeStyle;orthogonalLoop=1;jettySize=auto;html=1;elbow=vertical;startArrow=none;endArrow=none;" parent="132" source="133" target="141" edge="1">
                    <mxGeometry relative="1" as="geometry">
                        <mxPoint x="130" y="130" as="sourcePoint"/>
                    </mxGeometry>
                </mxCell>
                <UserObject label="Teste AB" treeRoot="1" id="141">
                    <mxCell style="whiteSpace=wrap;html=1;align=center;treeFolding=1;treeMoving=1;newEdgeStyle={&quot;edgeStyle&quot;:&quot;elbowEdgeStyle&quot;,&quot;startArrow&quot;:&quot;none&quot;,&quot;endArrow&quot;:&quot;none&quot;};" parent="132" vertex="1">
                        <mxGeometry x="420" y="150" width="120" height="60" as="geometry"/>
                    </mxCell>
                </UserObject>
                <mxCell id="143" value="" style="edgeStyle=elbowEdgeStyle;orthogonalLoop=1;jettySize=auto;html=1;elbow=vertical;startArrow=none;endArrow=none;" parent="132" source="133" target="144" edge="1">
                    <mxGeometry relative="1" as="geometry">
                        <mxPoint x="690" y="110" as="sourcePoint"/>
                    </mxGeometry>
                </mxCell>
                <UserObject label="Marketing" treeRoot="1" id="144">
                    <mxCell style="whiteSpace=wrap;html=1;align=center;treeFolding=1;treeMoving=1;newEdgeStyle={&quot;edgeStyle&quot;:&quot;elbowEdgeStyle&quot;,&quot;startArrow&quot;:&quot;none&quot;,&quot;endArrow&quot;:&quot;none&quot;};" parent="132" vertex="1">
                        <mxGeometry x="550" y="150" width="120" height="60" as="geometry"/>
                    </mxCell>
                </UserObject>
                <mxCell id="145" value="" style="edgeStyle=elbowEdgeStyle;orthogonalLoop=1;jettySize=auto;html=1;elbow=vertical;startArrow=none;endArrow=none;" parent="132" source="133" target="146" edge="1">
                    <mxGeometry relative="1" as="geometry">
                        <mxPoint x="690" y="110" as="sourcePoint"/>
                    </mxGeometry>
                </mxCell>
                <UserObject label="Cupons" treeRoot="1" id="146">
                    <mxCell style="whiteSpace=wrap;html=1;align=center;treeFolding=1;treeMoving=1;newEdgeStyle={&quot;edgeStyle&quot;:&quot;elbowEdgeStyle&quot;,&quot;startArrow&quot;:&quot;none&quot;,&quot;endArrow&quot;:&quot;none&quot;};" parent="132" vertex="1">
                        <mxGeometry x="680" y="150" width="120" height="60" as="geometry"/>
                    </mxCell>
                </UserObject>
                <mxCell id="148" value="Pedidos" style="swimlane;html=1;startSize=20;horizontal=1;containerType=tree;newEdgeStyle={&quot;edgeStyle&quot;:&quot;elbowEdgeStyle&quot;,&quot;startArrow&quot;:&quot;none&quot;,&quot;endArrow&quot;:&quot;none&quot;};fillColor=#fa6800;strokeColor=#C73500;fontColor=#ffffff;" vertex="1" parent="1">
                    <mxGeometry x="733" y="745" width="182" height="232" as="geometry"/>
                </mxCell>
                <UserObject label="Pedidos" treeRoot="1" id="149">
                    <mxCell style="whiteSpace=wrap;html=1;align=center;treeFolding=1;treeMoving=1;newEdgeStyle={&quot;edgeStyle&quot;:&quot;elbowEdgeStyle&quot;,&quot;startArrow&quot;:&quot;none&quot;,&quot;endArrow&quot;:&quot;none&quot;};fillColor=#fa6800;strokeColor=#C73500;fontColor=#ffffff;" vertex="1" parent="148">
                        <mxGeometry x="30" y="40" width="120" height="60" as="geometry"/>
                    </mxCell>
                </UserObject>
                <mxCell id="150" value="" style="edgeStyle=elbowEdgeStyle;orthogonalLoop=1;jettySize=auto;html=1;elbow=vertical;startArrow=none;endArrow=none;" edge="1" parent="148" source="149" target="151">
                    <mxGeometry relative="1" as="geometry"/>
                </mxCell>
                <UserObject label="Historio de Status" treeRoot="1" id="151">
                    <mxCell style="whiteSpace=wrap;html=1;align=center;treeFolding=1;treeMoving=1;newEdgeStyle={&quot;edgeStyle&quot;:&quot;elbowEdgeStyle&quot;,&quot;startArrow&quot;:&quot;none&quot;,&quot;endArrow&quot;:&quot;none&quot;};" vertex="1" parent="148">
                        <mxGeometry x="30" y="140" width="120" height="60" as="geometry"/>
                    </mxCell>
                </UserObject>
            </root>
        </mxGraphModel>
    </diagram>
</mxfile>